<svg xmlns="http://www.w3.org/2000/svg" xmlns:xlink="http://www.w3.org/1999/xlink" width="187" zoomAndPan="magnify" viewBox="0 0 140.25 30.000001" height="40" preserveAspectRatio="xMidYMid meet" version="1.0"><defs><g/><clipPath id="bd84c55f3f"><path d="M 4 11 L 20.917969 11 L 20.917969 26.929688 L 4 26.929688 Z M 4 11 " clip-rule="nonzero"/></clipPath><clipPath id="2c2e890964"><path d="M 4 2.480469 L 20.917969 2.480469 L 20.917969 17 L 4 17 Z M 4 2.480469 " clip-rule="nonzero"/></clipPath></defs><g clip-path="url(#bd84c55f3f)"><path fill="#38b6ff" d="M 3.992188 26.53125 L 8.109375 24.003906 L 8.109375 16.414062 L 16.355469 22.332031 L 16.355469 26.53125 L 20.476562 24.003906 L 20.476562 20.207031 L 8.109375 11.3125 L 3.992188 13.882812 Z M 3.992188 26.53125 " fill-opacity="1" fill-rule="nonzero"/></g><g clip-path="url(#2c2e890964)"><path fill="#38b6ff" d="M 8.109375 6.617188 L 16.355469 6.617188 L 16.355469 11.234375 L 13.050781 13.636719 L 16.597656 16.167969 L 20.476562 13.351562 L 20.476562 2.5 L 6.5625 2.5 L 3.992188 6.617188 Z M 8.109375 6.617188 " fill-opacity="1" fill-rule="nonzero"/></g><g fill="#38b6ff" fill-opacity="1"><g transform="translate(23.057691, 23.374218)"><g><path d="M 9.25 0 L 0.78125 0 L 0.78125 -7.03125 L 8.859375 -7.03125 L 8.859375 -5.296875 L 3.734375 -5.296875 L 3.734375 -4.1875 L 8.0625 -4.1875 L 8.0625 -2.84375 L 3.734375 -2.84375 L 3.734375 -1.734375 L 9.25 -1.734375 Z M 9.25 0 "/></g></g><g transform="translate(32.696351, 23.374218)"><g><path d="M 3.734375 0 L 0.78125 0 L 0.78125 -7.03125 L 3.734375 -7.03125 Z M 3.734375 0 "/></g></g><g transform="translate(37.212024, 23.374218)"><g><path d="M 11.21875 0 L 7.703125 0 L 3.734375 -4.75 L 3.734375 0 L 0.78125 0 L 0.78125 -7.03125 L 4.296875 -7.03125 L 8.265625 -2.296875 L 8.265625 -7.03125 L 11.21875 -7.03125 Z M 11.21875 0 "/></g></g><g transform="translate(49.206475, 23.374218)"><g><path d="M 5.484375 0 L 0.78125 0 L 0.78125 -7.03125 L 5.484375 -7.03125 C 7.410156 -7.03125 8.796875 -6.757812 9.640625 -6.21875 C 10.316406 -5.78125 10.703125 -5.191406 10.796875 -4.453125 C 10.835938 -4.128906 10.859375 -3.816406 10.859375 -3.515625 C 10.859375 -3.210938 10.835938 -2.898438 10.796875 -2.578125 C 10.753906 -2.253906 10.644531 -1.9375 10.46875 -1.625 C 10.289062 -1.320312 10.007812 -1.046875 9.625 -0.796875 C 9.25 -0.554688 8.722656 -0.363281 8.046875 -0.21875 C 7.378906 -0.0703125 6.523438 0 5.484375 0 Z M 5.203125 -1.734375 C 6.703125 -1.734375 7.550781 -2.113281 7.75 -2.875 C 7.800781 -3.082031 7.828125 -3.296875 7.828125 -3.515625 C 7.828125 -3.722656 7.800781 -3.929688 7.75 -4.140625 C 7.695312 -4.359375 7.582031 -4.550781 7.40625 -4.71875 C 7.226562 -4.894531 6.960938 -5.035156 6.609375 -5.140625 C 6.265625 -5.242188 5.796875 -5.296875 5.203125 -5.296875 L 3.734375 -5.296875 L 3.734375 -1.734375 Z M 5.203125 -1.734375 "/></g></g><g transform="translate(60.456476, 23.374218)"><g><path d="M 4.640625 0.15625 C 3.691406 0.15625 2.925781 0.0546875 2.34375 -0.140625 C 1.757812 -0.347656 1.316406 -0.628906 1.015625 -0.984375 C 0.710938 -1.347656 0.507812 -1.765625 0.40625 -2.234375 L 3.53125 -2.234375 C 3.769531 -1.898438 4.140625 -1.734375 4.640625 -1.734375 C 5.148438 -1.734375 5.519531 -1.898438 5.75 -2.234375 C 5.769531 -2.265625 5.78125 -2.296875 5.78125 -2.328125 C 5.78125 -2.410156 5.660156 -2.472656 5.421875 -2.515625 C 5.191406 -2.566406 4.847656 -2.601562 4.390625 -2.625 C 3.796875 -2.644531 3.179688 -2.707031 2.546875 -2.8125 C 1.109375 -3.03125 0.390625 -3.601562 0.390625 -4.53125 C 0.390625 -4.613281 0.394531 -4.695312 0.40625 -4.78125 C 0.507812 -5.25 0.710938 -5.660156 1.015625 -6.015625 C 1.316406 -6.378906 1.757812 -6.660156 2.34375 -6.859375 C 2.925781 -7.066406 3.691406 -7.171875 4.640625 -7.171875 C 5.585938 -7.171875 6.351562 -7.066406 6.9375 -6.859375 C 7.519531 -6.660156 7.960938 -6.378906 8.265625 -6.015625 C 8.566406 -5.660156 8.769531 -5.25 8.875 -4.78125 L 5.75 -4.78125 C 5.519531 -5.113281 5.148438 -5.28125 4.640625 -5.28125 C 4.140625 -5.28125 3.769531 -5.113281 3.53125 -4.78125 C 3.519531 -4.757812 3.515625 -4.738281 3.515625 -4.71875 C 3.515625 -4.632812 3.625 -4.570312 3.84375 -4.53125 C 4.070312 -4.5 4.398438 -4.46875 4.828125 -4.4375 C 5.265625 -4.414062 5.726562 -4.375 6.21875 -4.3125 C 6.71875 -4.257812 7.179688 -4.160156 7.609375 -4.015625 C 8.046875 -3.867188 8.382812 -3.648438 8.625 -3.359375 C 8.8125 -3.140625 8.90625 -2.863281 8.90625 -2.53125 C 8.90625 -2.4375 8.894531 -2.335938 8.875 -2.234375 C 8.769531 -1.765625 8.566406 -1.347656 8.265625 -0.984375 C 7.960938 -0.628906 7.519531 -0.347656 6.9375 -0.140625 C 6.351562 0.0546875 5.585938 0.15625 4.640625 0.15625 Z M 4.640625 0.15625 "/></g></g></g></svg>